<?xml version="1.0" standalone="no"?>
<!DOCTYPE svg PUBLIC "-//W3C//DTD SVG 1.0//EN" "http://www.w3.org/TR/2001/REC-SVG-20010904/DTD/svg10.dtd">
<svg xmlns="http://www.w3.org/2000/svg" width="800" height="160" viewBox="0 0 800 160" xmlns:xlink="htttp://www.w3.org/1999/xlink">

  <defs>
    <style type="text/css">
      <![CDATA[
        line {fill:none; stroke:#93a1a1; stroke-width:1.0px;}
      ]]>
    </style>
  </defs>

<text x="10" y="64.0" fill="black" font-family="Helvetica" font-size="12" font-weight="bold">NC_031969</text>
<rect style="stroke:none; fill:#5b5b5b" x="83.82220512859749" y="10" width="61.12546979094026" height="100" />
<rect style="stroke:none; fill:#606cb3" x="144.99191729392004" y="10" width="1.8630333178707197" height="100" />
<rect style="stroke:none; fill:#5b5b5b" x="147.01849805565718" y="10" width="47.95040805025589" height="100" />
<rect style="stroke:none; fill:#606cb3" x="194.96939146529445" y="10" width="0.13759938462950977" height="100" />
<rect style="stroke:none; fill:#bfbfbf" x="195.10852159874224" y="10" width="0.030633644034327164" height="100" />
<rect style="stroke:none; fill:#f59031" x="195.14135802766145" y="10" width="0.2697851453894553" height="100" />
<rect style="stroke:none; fill:#bfbfbf" x="195.41612744054459" y="10" width="0.10448294068258936" height="100" />
<rect style="stroke:none; fill:#f59031" x="195.52159976765853" y="10" width="1.9294715501182336" height="100" />
<rect style="stroke:none; fill:#bfbfbf" x="197.46531474885427" y="10" width="0.03933277756266138" height="100" />
<rect style="stroke:none; fill:#606cb3" x="197.51071451868455" y="10" width="1.1523365098080325" height="100" />
<rect style="stroke:none; fill:#5b5b5b" x="198.68606826377248" y="10" width="5.5826969433112605" height="100" />
<rect style="stroke:none; fill:#bfbfbf" x="204.2910170679545" y="10" width="0.1012721016978823" height="100" />
<rect style="stroke:none; fill:#27abd0" x="204.39393192448176" y="10" width="16.071873205619664" height="100" />
<rect style="stroke:none; fill:#bfbfbf" x="220.48318472948958" y="10" width="0.001418742807196139" height="100" />
<rect style="stroke:none; fill:#bfbfbf" x="220.49130516529394" y="10" width="4.021501157671519" height="100" />
<rect style="stroke:none; fill:#bfbfbf" x="224.51291832897655" y="10" width="2.237898769335268" height="100" />
<rect style="stroke:none; fill:#5b5b5b" x="226.75568935979442" y="10" width="17.2593235999058" height="100" />
<rect style="stroke:none; fill:#bfbfbf" x="244.01876516107188" y="10" width="0.07887089947899589" height="100" />
<rect style="stroke:none; fill:#ef2746" x="244.09769206355642" y="10" width="0.449536125527503" height="100" />
<rect style="stroke:none; fill:#5b5b5b" x="244.5674826094235" y="10" width="13.738209296798656" height="100" />
<rect style="stroke:none; fill:#bfbfbf" x="258.30910808956054" y="10" width="0.1684570406860258" height="100" />
<rect style="stroke:none; fill:#bad531" x="258.4876830065821" y="10" width="1.6263832840967005" height="100" />
<rect style="stroke:none; fill:#5b5b5b" x="260.11408495834735" y="10" width="3.3189247854131785" height="100" />
<rect style="stroke:none; fill:#ef2746" x="263.4494186243858" y="10" width="0.6450239502243184" height="100" />
<rect style="stroke:none; fill:#5b5b5b" x="264.097224057219" y="10" width="6.376390205594921" height="100" />
<rect style="stroke:none; fill:#bfbfbf" x="270.48020394979994" y="10" width="0.006515016311992797" height="100" />
<rect style="stroke:none; fill:#5b5b5b" x="270.4900791464448" y="10" width="0.9320393536538004" height="100" />
<rect style="stroke:none; fill:#bfbfbf" x="271.42628139017756" y="10" width="0.037466010711087516" height="100" />
<rect style="stroke:none; fill:#bfbfbf" x="271.4795962514586" y="10" width="0.78292201755008" height="100" />
<rect style="stroke:none; fill:#bfbfbf" x="272.2642730298491" y="10" width="0.06841700511018224" height="100" />
<rect style="stroke:none; fill:#5b5b5b" x="272.33438879279424" y="10" width="3.4922540875818124" height="100" />
<rect style="stroke:none; fill:#bfbfbf" x="275.92524550547614" y="10" width="0.022401202218886408" height="100" />
<rect style="stroke:none; fill:#bad531" x="275.9555431314772" y="10" width="8.17253726717375" height="100" />
<rect style="stroke:none; fill:#bfbfbf" x="284.13037652187836" y="10" width="0.05079472603132493" height="100" />
<rect style="stroke:none; fill:#bfbfbf" x="284.1836913831594" y="10" width="0.7034537526785805" height="100" />
<rect style="stroke:none; fill:#bfbfbf" x="284.88725714184903" y="10" width="0.0011760631164915364" height="100" />
<rect style="stroke:none; fill:#bfbfbf" x="284.8888625613414" y="10" width="0.6835726857093187" height="100" />
<rect style="stroke:none; fill:#bfbfbf" x="285.57306994778025" y="10" width="0.050048019290695384" height="100" />
<rect style="stroke:none; fill:#5b5b5b" x="285.63073437582534" y="10" width="1.3197108257201455" height="100" />
<rect style="stroke:none; fill:#bfbfbf" x="286.9602457275163" y="10" width="4.794603981582321" height="100" />
<rect style="stroke:none; fill:#bfbfbf" x="291.757183167663" y="10" width="2.488138865788745" height="100" />
<rect style="stroke:none; fill:#bfbfbf" x="294.2489808964809" y="10" width="0.020086411322934813" height="100" />
<rect style="stroke:none; fill:#ef2746" x="294.2753209767566" y="10" width="0.518046468980264" height="100" />
<rect style="stroke:none; fill:#bfbfbf" x="294.7975676711529" y="10" width="0.05876582048754534" height="100" />
<rect style="stroke:none; fill:#f59031" x="294.8675714280869" y="10" width="1.6594997280436208" height="100" />
<rect style="stroke:none; fill:#bfbfbf" x="296.5318874146076" y="10" width="0.02363326834092516" height="100" />
<rect style="stroke:none; fill:#bfbfbf" x="296.5597022406961" y="10" width="4.30860989944358" height="100" />
<rect style="stroke:none; fill:#bfbfbf" x="300.8690028438747" y="10" width="0.029046892210489374" height="100" />
<rect style="stroke:none; fill:#27abd0" x="300.9010178953792" y="10" width="12.427216272275361" height="100" />
<rect style="stroke:none; fill:#bfbfbf" x="313.32825283532304" y="10" width="0.007373729063716776" height="100" />
<rect style="stroke:none; fill:#bfbfbf" x="313.34176822732843" y="10" width="1.6533207297649113" height="100" />
<rect style="stroke:none; fill:#bfbfbf" x="315.00858568143025" y="10" width="0.0036588630290847798" height="100" />
<rect style="stroke:none; fill:#f59031" x="315.0124685564815" y="10" width="7.429246709882583" height="100" />
<rect style="stroke:none; fill:#bfbfbf" x="322.45336389151794" y="10" width="0.04818125243912152" height="100" />
<rect style="stroke:none; fill:#bfbfbf" x="322.5021985123551" y="10" width="4.071791856652919" height="100" />
<rect style="stroke:none; fill:#bfbfbf" x="326.5742703840358" y="10" width="0.14934134812590938" height="100" />
<rect style="stroke:none; fill:#bfbfbf" x="326.7254598313447" y="10" width="8.455819136900084" height="100" />
<rect style="stroke:none; fill:#bfbfbf" x="335.18389244183703" y="10" width="0.001194730785007275" height="100" />
<rect style="stroke:none; fill:#ef2746" x="335.1915835212655" y="10" width="1.882298351778962" height="100" />
<rect style="stroke:none; fill:#bfbfbf" x="337.076943370681" y="10" width="0.005506962212142909" height="100" />
<rect style="stroke:none; fill:#bfbfbf" x="337.08276768325794" y="10" width="0.9935119860761279" height="100" />
<rect style="stroke:none; fill:#bfbfbf" x="338.08219732025356" y="10" width="0.015214149840327018" height="100" />
<rect style="stroke:none; fill:#5b5b5b" x="338.099875602338" y="10" width="0.5932025024246278" height="100" />
<rect style="stroke:none; fill:#ef2746" x="338.70048916916335" y="10" width="0.8735348805254755" height="100" />
<rect style="stroke:none; fill:#bfbfbf" x="339.57762690971236" y="10" width="5.161218323562912" height="100" />
<rect style="stroke:none; fill:#ef2746" x="344.73966661069" y="10" width="0.618478525594938" height="100" />
<rect style="stroke:none; fill:#bfbfbf" x="345.3671429525095" y="10" width="0.28742609213682835" height="100" />
<rect style="stroke:none; fill:#bfbfbf" x="345.6621107827267" y="10" width="0.01278735293328099" height="100" />
<rect style="stroke:none; fill:#27abd0" x="345.6756448424006" y="10" width="5.684491739727584" height="100" />
<rect style="stroke:none; fill:#ef2746" x="351.36204068431675" y="10" width="0.9445280238908297" height="100" />
<rect style="stroke:none; fill:#bfbfbf" x="352.3249190263586" y="10" width="0.008549792180208312" height="100" />
<rect style="stroke:none; fill:#ef2746" x="352.3337114982295" y="10" width="1.6063902111163444" height="100" />
<rect style="stroke:none; fill:#bfbfbf" x="353.94023238302543" y="10" width="0.019750393289651516" height="100" />
<rect style="stroke:none; fill:#ef2746" x="353.9608414890668" y="10" width="2.692941857074914" height="100" />
<rect style="stroke:none; fill:#bfbfbf" x="356.6542127025176" y="10" width="0.00018667668515738673" height="100" />
<rect style="stroke:none; fill:#5b5b5b" x="356.6590476286632" y="10" width="8.82267615857138" height="100" />
<rect style="stroke:none; fill:#bfbfbf" x="365.48489729088226" y="10" width="0.0313243477694095" height="100" />
<rect style="stroke:none; fill:#606cb3" x="365.51655765668494" y="10" width="0.3672490427101269" height="100" />
<rect style="stroke:none; fill:#bfbfbf" x="365.8948206238193" y="10" width="1.2450028163201594" height="100" />
<rect style="stroke:none; fill:#ef2746" x="367.15160273897294" y="10" width="0.34854403885735674" height="100" />
<rect style="stroke:none; fill:#bfbfbf" x="367.50949927975665" y="10" width="0.030932326730578982" height="100" />
<rect style="stroke:none; fill:#27abd0" x="367.5442024755274" y="10" width="5.46174911899779" height="100" />
<rect style="stroke:none; fill:#bfbfbf" x="373.0065116245807" y="10" width="0.058131119758010226" height="100" />
<rect style="stroke:none; fill:#ef2746" x="373.0693843321417" y="10" width="1.2353516316975224" height="100" />
<rect style="stroke:none; fill:#bfbfbf" x="374.30762945245914" y="10" width="0.7929278878745158" height="100" />
<rect style="stroke:none; fill:#bfbfbf" x="375.10124804406877" y="10" width="0.09869596344271037" height="100" />
<rect style="stroke:none; fill:#5b5b5b" x="375.2015120916668" y="10" width="0.10121609869233508" height="100" />
<rect style="stroke:none; fill:#bfbfbf" x="375.30356823544236" y="10" width="0.02816951179024966" height="100" />
<rect style="stroke:none; fill:#ef2746" x="375.3320177622603" y="10" width="0.4299350735859774" height="100" />
<rect style="stroke:none; fill:#bfbfbf" x="375.7630915636258" y="10" width="0.8063872768743635" height="100" />
<rect style="stroke:none; fill:#ef2746" x="376.5718309667331" y="10" width="3.7424008456927105" height="100" />
<rect style="stroke:none; fill:#bfbfbf" x="380.31436248610544" y="10" width="0.03145502144901966" height="100" />
<rect style="stroke:none; fill:#ef2746" x="380.3480202924393" y="10" width="1.7347677674990791" height="100" />
<rect style="stroke:none; fill:#bfbfbf" x="382.08534553052505" y="10" width="0.026508089292348914" height="100" />
<rect style="stroke:none; fill:#bfbfbf" x="382.1167445489685" y="10" width="1.7492165429302609" height="100" />
<rect style="stroke:none; fill:#bfbfbf" x="383.86915326321497" y="10" width="0.02212118719115033" height="100" />
<rect style="stroke:none; fill:#ef2746" x="383.89368257964463" y="10" width="0.2533202617585738" height="100" />
<rect style="stroke:none; fill:#f59031" x="384.1476748774698" y="10" width="1.5150119737318035" height="100" />
<rect style="stroke:none; fill:#ef2746" x="385.6682684840878" y="10" width="4.022527879439885" height="100" />
<rect style="stroke:none; fill:#bfbfbf" x="389.6923457800145" y="10" width="0.007373729063716776" height="100" />
<rect style="stroke:none; fill:#bfbfbf" x="389.7072799148271" y="10" width="2.5668604239196147" height="100" />
<rect style="stroke:none; fill:#bfbfbf" x="392.2751110575095" y="10" width="0.8393730471416737" height="100" />
<rect style="stroke:none; fill:#ef2746" x="393.1168735662212" y="10" width="1.1153371908098384" height="100" />
<rect style="stroke:none; fill:#27abd0" x="394.236298976436" y="10" width="1.8194443118864698" height="100" />
<rect style="stroke:none; fill:#bfbfbf" x="396.06048487612543" y="10" width="0.040620846690247354" height="100" />
<rect style="stroke:none; fill:#5b5b5b" x="396.1047645858448" y="10" width="4.2943291330290405" height="100" />
<rect style="stroke:none; fill:#ef2746" x="401.1446057287184" y="10" width="18.291832345511306" height="100" />
<rect style="stroke:none; fill:#bfbfbf" x="419.4407129703198" y="10" width="0.06328339626835411" height="100" />
<rect style="stroke:none; fill:#ef2746" x="419.5219546637003" y="10" width="9.972417862455725" height="100" />
<rect style="stroke:none; fill:#5b5b5b" x="429.49965547634594" y="10" width="9.273033661513576" height="100" />
<rect style="stroke:none; fill:#bfbfbf" x="438.79100212067345" y="10" width="7.363480513701635" height="100" />
<rect style="stroke:none; fill:#bfbfbf" x="446.15478131707135" y="10" width="0.012675346922186559" height="100" />
<rect style="stroke:none; fill:#bad531" x="446.1843322363318" y="10" width="5.303615299000967" height="100" />
<rect style="stroke:none; fill:#bfbfbf" x="451.48819021502345" y="10" width="0.1563977268248586" height="100" />
<rect style="stroke:none; fill:#5b5b5b" x="451.64565199895367" y="10" width="22.14295369263968" height="100" />
<rect style="stroke:none; fill:#606cb3" x="473.79487802821467" y="10" width="1.4889145731468008" height="100" />
<rect style="stroke:none; fill:#bfbfbf" x="475.28663008697583" y="10" width="0.03711132500928848" height="100" />
<rect style="stroke:none; fill:#27abd0" x="475.3297337335787" y="10" width="1.4745031330526506" height="100" />
<rect style="stroke:none; fill:#bfbfbf" x="476.82226983441757" y="10" width="0.010061873329983146" height="100" />
<rect style="stroke:none; fill:#ef2746" x="476.83292907314" y="10" width="2.6110467952963683" height="100" />
<rect style="stroke:none; fill:#bfbfbf" x="479.44436788947525" y="10" width="0.0529041725736034" height="100" />
<rect style="stroke:none; fill:#ef2746" x="479.51784383275316" y="10" width="0.40365099631581736" height="100" />
<rect style="stroke:none; fill:#bfbfbf" x="479.9388557607886" y="10" width="0.09016483893101779" height="100" />
<rect style="stroke:none; fill:#ef2746" x="480.04053855119383" y="10" width="6.729414484896056" height="100" />
<rect style="stroke:none; fill:#bfbfbf" x="486.77863350194974" y="10" width="0.1414822596807834" height="100" />
<rect style="stroke:none; fill:#bfbfbf" x="486.92017176463605" y="10" width="0.6161450670304707" height="100" />
<rect style="stroke:none; fill:#5b5b5b" x="487.6374395920163" y="10" width="1.6080329659457293" height="100" />
<rect style="stroke:none; fill:#ef2746" x="489.2496914510466" y="10" width="0.19879200202410113" height="100" />
<rect style="stroke:none; fill:#bfbfbf" x="489.4509662529833" y="10" width="0.010248550015140532" height="100" />
<rect style="stroke:none; fill:#27abd0" x="489.46959658616197" y="10" width="4.603372385307094" height="100" />
<rect style="stroke:none; fill:#bfbfbf" x="494.0751530886854" y="10" width="0.022718552583653965" height="100" />
<rect style="stroke:none; fill:#5b5b5b" x="494.1061974214271" y="10" width="2.756075911995142" height="100" />
<rect style="stroke:none; fill:#606cb3" x="496.86339339353316" y="10" width="1.162230374121374" height="100" />
<rect style="stroke:none; fill:#bfbfbf" x="498.02941330436323" y="10" width="0.04162890079009724" height="100" />
<rect style="stroke:none; fill:#ef2746" x="498.07494374787314" y="10" width="0.9334394287924809" height="100" />
<rect style="stroke:none; fill:#5b5b5b" x="499.0119113660151" y="10" width="0.6437172134282166" height="100" />
<rect style="stroke:none; fill:#ef2746" x="499.6599408108704" y="10" width="1.351389859191354" height="100" />
<rect style="stroke:none; fill:#bfbfbf" x="501.01308543090227" y="10" width="0.030353629006591082" height="100" />
<rect style="stroke:none; fill:#27abd0" x="501.04366307193106" y="10" width="2.061358628181927" height="100" />
<rect style="stroke:none; fill:#bfbfbf" x="503.10505903545" y="10" width="0.02548136752398329" height="100" />
<rect style="stroke:none; fill:#ef2746" x="503.1312311067091" y="10" width="8.313646173484218" height="100" />
<rect style="stroke:none; fill:#bfbfbf" x="511.4499735536981" y="10" width="0.04183424514377037" height="100" />
<rect style="stroke:none; fill:#ef2746" x="511.4930211972954" y="10" width="2.646440694802209" height="100" />
<rect style="stroke:none; fill:#5b5b5b" x="514.142336713049" y="10" width="4.662866244866753" height="100" />
<rect style="stroke:none; fill:#ef2746" x="518.8073310721265" y="10" width="4.341875684738627" height="100" />
<rect style="stroke:none; fill:#5b5b5b" x="523.1523242575073" y="10" width="1.4297007286148777" height="100" />
<rect style="stroke:none; fill:#ef2746" x="524.5855158401346" y="10" width="5.240481244080739" height="100" />
<rect style="stroke:none; fill:#bfbfbf" x="529.8287038961502" y="10" width="0.8794338637764489" height="100" />
<rect style="stroke:none; fill:#ef2746" x="530.7118899612983" y="10" width="3.3063801121706025" height="100" />
<rect style="stroke:none; fill:#bfbfbf" x="534.0182887411374" y="10" width="0.0730839222391169" height="100" />
<rect style="stroke:none; fill:#606cb3" x="534.0983357037328" y="10" width="0.8622596087419693" height="100" />
<rect style="stroke:none; fill:#bfbfbf" x="534.9657662566538" y="10" width="1.117801323053916" height="100" />
<rect style="stroke:none; fill:#bfbfbf" x="536.0858450352665" y="10" width="0.01659555731049168" height="100" />
<rect style="stroke:none; fill:#ef2746" x="536.1031126286437" y="10" width="0.8172145246134919" height="100" />
<rect style="stroke:none; fill:#bfbfbf" x="536.9341785632957" y="10" width="3.199041018205105" height="100" />
<rect style="stroke:none; fill:#bfbfbf" x="540.1378304956243" y="10" width="0.027124122353368293" height="100" />
<rect style="stroke:none; fill:#606cb3" x="540.1663360254478" y="10" width="3.8663541646372153" height="100" />
<rect style="stroke:none; fill:#5b5b5b" x="544.0406612845412" y="10" width="0.2268308401347406" height="100" />
<rect style="stroke:none; fill:#bfbfbf" x="544.2678654780464" y="10" width="0.04097553239204639" height="100" />
<rect style="stroke:none; fill:#606cb3" x="544.3123691997878" y="10" width="0.8044831746857581" height="100" />
<rect style="stroke:none; fill:#bfbfbf" x="545.123852750167" y="10" width="0.019321036913789526" height="100" />
<rect style="stroke:none; fill:#bad531" x="545.1472246711487" y="10" width="0.8365728968643129" height="100" />
<rect style="stroke:none; fill:#ef2746" x="545.9890245151973" y="10" width="15.11054428006467" height="100" />
<rect style="stroke:none; fill:#bfbfbf" x="561.1013235561026" y="10" width="0.017976964780656343" height="100" />
<rect style="stroke:none; fill:#27abd0" x="561.1207379313589" y="10" width="8.368323774566816" height="100" />
<rect style="stroke:none; fill:#bfbfbf" x="569.4914324998272" y="10" width="0.05982987759294245" height="100" />
<rect style="stroke:none; fill:#bfbfbf" x="569.5584307621302" y="10" width="0.9113929122753935" height="100" />
<rect style="stroke:none; fill:#bfbfbf" x="570.4718397826052" y="10" width="0.004872261482607793" height="100" />
<rect style="stroke:none; fill:#ef2746" x="570.4768987207731" y="10" width="2.501990275827423" height="100" />
<rect style="stroke:none; fill:#5b5b5b" x="572.979635703341" y="10" width="5.406436817185655" height="100" />
<rect style="stroke:none; fill:#bfbfbf" x="578.4161648021741" y="10" width="0.029158898221583806" height="100" />
<rect style="stroke:none; fill:#ef2746" x="578.4458650627827" y="10" width="4.397860022617327" height="100" />
<rect style="stroke:none; fill:#bfbfbf" x="582.8438930944167" y="10" width="0.05716040099519182" height="100" />
<rect style="stroke:none; fill:#5b5b5b" x="582.9091552635477" y="10" width="0.48860755573094405" height="100" />
<rect style="stroke:none; fill:#ef2746" x="583.3985468613563" y="10" width="0.941354520243154" height="100" />
<rect style="stroke:none; fill:#bfbfbf" x="584.3418428191251" y="10" width="0.004816258477060578" height="100" />
<rect style="stroke:none; fill:#bad531" x="584.3499072519239" y="10" width="3.1716368808240007" height="100" />
<rect style="stroke:none; fill:#bfbfbf" x="587.522309507157" y="10" width="0.07304658690208543" height="100" />
<rect style="stroke:none; fill:#bad531" x="587.5981002413309" y="10" width="3.837848634813682" height="100" />
<rect style="stroke:none; fill:#ef2746" x="591.4408771406328" y="10" width="1.1084861564645625" height="100" />
<rect style="stroke:none; fill:#bad531" x="592.5653988243523" y="10" width="15.445348914894442" height="100" />
<rect style="stroke:none; fill:#bfbfbf" x="608.012278488065" y="10" width="0.03399382436716012" height="100" />
<rect style="stroke:none; fill:#bfbfbf" x="608.0465336597914" y="10" width="1.5804421518794676" height="100" />
<rect style="stroke:none; fill:#5b5b5b" x="609.6288052431854" y="10" width="1.3497097690249376" height="100" />
<rect style="stroke:none; fill:#ef2746" x="610.9880355231534" y="10" width="0.32823361551223307" height="100" />
<rect style="stroke:none; fill:#5b5b5b" x="611.3165491536934" y="10" width="3.1029211930175666" height="100" />
<rect style="stroke:none; fill:#bfbfbf" x="614.4463331217052" y="10" width="0.12565207677943702" height="100" />
<rect style="stroke:none; fill:#5b5b5b" x="614.5744306630601" y="10" width="5.04654283587073" height="100" />
<rect style="stroke:none; fill:#bfbfbf" x="619.6216455349974" y="10" width="0.07024643662472463" height="100" />
<rect style="stroke:none; fill:#bad531" x="619.6957375113363" y="10" width="13.944207018869832" height="100" />
<rect style="stroke:none; fill:#f59031" x="633.6408592459635" y="10" width="2.122383236559877" height="100" />
<rect style="stroke:none; fill:#bfbfbf" x="635.7658559561155" y="10" width="0.05331486128094965" height="100" />
<rect style="stroke:none; fill:#bfbfbf" x="635.819730847452" y="10" width="1.9996246484003795" height="100" />
<rect style="stroke:none; fill:#ef2746" x="637.8366790922349" y="10" width="0.775921641856678" height="100" />
<rect style="stroke:none; fill:#bfbfbf" x="638.63136174095" y="10" width="0.01831298281393964" height="100" />
<rect style="stroke:none; fill:#606cb3" x="638.6500480771342" y="10" width="0.12600676248123605" height="100" />
<rect style="stroke:none; fill:#f59031" x="638.7972426433809" y="10" width="4.05487894897766" height="100" />
<rect style="stroke:none; fill:#606cb3" x="642.8639755618659" y="10" width="0.7470240909943144" height="100" />
<rect style="stroke:none; fill:#bfbfbf" x="643.616058591028" y="10" width="4.244393119749439" height="100" />
<rect style="stroke:none; fill:#bfbfbf" x="647.860507713783" y="10" width="0.03186571015636591" height="100" />
<rect style="stroke:none; fill:#bad531" x="647.8926161036301" y="10" width="2.747712796500091" height="100" />
<rect style="stroke:none; fill:#606cb3" x="650.6702158374239" y="10" width="6.086219966186279" height="100" />
<rect style="stroke:none; fill:#bfbfbf" x="656.7727700135614" y="10" width="0.1593472184503453" height="100" />
<rect style="stroke:none; fill:#ef2746" x="656.9475927292114" y="10" width="6.000199349665756" height="100" />
<rect style="stroke:none; fill:#f59031" x="662.9532057027467" y="10" width="35.376445235778306" height="100" />
<rect style="stroke:none; fill:#bfbfbf" x="698.3298749505472" y="10" width="0.046034470559811566" height="100" />
<rect style="stroke:none; fill:#f59031" x="698.3762641068088" y="10" width="17.49115737520276" height="100" />
<rect style="stroke:none; fill:#bfbfbf" x="715.8838116949684" y="10" width="0.014224763408992869" height="100" />
<rect style="stroke:none; fill:#bfbfbf" x="715.9081543347129" y="10" width="1.5847543833066031" height="100" />
<rect style="stroke:none; fill:#bfbfbf" x="717.494234122484" y="10" width="0.023819945026082548" height="100" />
<rect style="stroke:none; fill:#5b5b5b" x="717.5436101057082" y="10" width="1.0711881547701165" height="100" />
<rect style="stroke:none; fill:#bfbfbf" x="718.6176357460927" y="10" width="0.025649376540624935" height="100" />
<rect style="stroke:none; fill:#f59031" x="718.6468879826568" y="10" width="9.155800703234737" height="100" />
<rect style="stroke:none; fill:#bfbfbf" x="727.8183881951134" y="10" width="0.16481684532545673" height="100" />
<rect style="stroke:none; fill:#606cb3" x="728.0025820803581" y="10" width="8.521734674429156" height="100" />
<rect style="stroke:none; fill:#5b5b5b" x="736.5269302283795" y="10" width="16.81297964569449" height="100" />
<rect style="stroke:none; fill:#606cb3" x="753.3592682463249" y="10" width="11.335419011463868" height="100" />
<rect style="stroke:none; fill:#bfbfbf" x="764.6994661809288" y="10" width="0.6063818763967393" height="100" />
<rect style="stroke:none; fill:#f59031" x="765.3069494497679" y="10" width="11.85606028636782" height="100" />
<rect style="stroke:none; fill:#bfbfbf" x="777.2028465407483" y="10" width="0.014131425066414176" height="100" />
<rect style="stroke:none; fill:#ef2746" x="777.2188820680033" y="10" width="0.040826191043920476" height="100" />
<rect style="stroke:none; fill:#5b5b5b" x="777.261257675534" y="10" width="12.738742324466008" height="100" />
<rect style="stroke:black; stroke-width:1px; fill:none" x="83.82220512859749" y="10" width="706.1777948714025" height="100" />
<line style="stroke:black; stroke-width:1px; fill:none" x1="80" y1="120" x2="790" y2="120"/>
<line style="stroke:black; stroke-width:1px; fill:none" x1="80.0" y1="120" x2="80.0" y2="122"/>
<line style="stroke:black; stroke-width:1px; fill:none" x1="173.33834257869336" y1="120" x2="173.33834257869336" y2="122"/>
<line style="stroke:black; stroke-width:1px; fill:none" x1="266.6766851573867" y1="120" x2="266.6766851573867" y2="122"/>
<line style="stroke:black; stroke-width:1px; fill:none" x1="360.01502773608007" y1="120" x2="360.01502773608007" y2="122"/>
<line style="stroke:black; stroke-width:1px; fill:none" x1="453.35337031477343" y1="120" x2="453.35337031477343" y2="122"/>
<line style="stroke:black; stroke-width:1px; fill:none" x1="546.6917128934668" y1="120" x2="546.6917128934668" y2="122"/>
<line style="stroke:black; stroke-width:1px; fill:none" x1="640.0300554721601" y1="120" x2="640.0300554721601" y2="122"/>
<line style="stroke:black; stroke-width:1px; fill:none" x1="733.3683980508536" y1="120" x2="733.3683980508536" y2="122"/>
<text text-anchor="middle" x="80.0" y="136" fill="black" font-family="Helvetica" font-size="12">0</text>
<text text-anchor="middle" x="266.6766851573867" y="136" fill="black" font-family="Helvetica" font-size="12">10000000</text>
<text text-anchor="middle" x="453.35337031477343" y="136" fill="black" font-family="Helvetica" font-size="12">20000000</text>
<text text-anchor="middle" x="640.0300554721601" y="136" fill="black" font-family="Helvetica" font-size="12">30000000</text>
<text text-anchor="middle" x="435.0" y="154" fill="black" font-family="Helvetica" font-size="12" font-weight="bold">Chromosome position (bp)</text>

</svg>
